# xmcd
#
# Track frame offsets:
#	150
#	14858
#	26357
#	40505
#	56363
#	74138
#	89835
#	104481
#	112745
#	141868
#	152861
#	162429
#	175118
#	186770
#	201743
#
# Disc length: 2924 seconds
#
# Revision: 0
# Processed by: cddbd v1.4PL0 Copyright (c) Steve Scherf et al.
# Submitted via: EasyCDDAExtractor 4.6.9.1
#
DISCID=d90b6a0f
DTITLE=Cajun - Mardi Gras Vol.2
DYEAR=2002
DGENRE=Cajun
TTITLE0=Mais Y'ou Toi T'es?
TTITLE1=J'Ai Fait Mon Idee
TTITLE2=Bayou Teche Two Steps
TTITLE3=Mon Cinquante Sous
TTITLE4=Peux Pas T'Oublier
TTITLE5=Ca Quoi J'ai Fait
TTITLE6=Diggy Liggy Lo
TTITLE7=Bebe Creole
TTITLE8=Churchpoint/One Step de Duson
TTITLE9=Bayou Lafourche
TTITLE10=Soleil Apres Couche
TTITLE11=Une Pias Icitte
TTITLE12=Hound Dog Baby
TTITLE13=J'Va M'En Aller
TTITLE14=Bosco Stomp
EXTD=
EXTT0=
EXTT1=
EXTT2=
EXTT3=
EXTT4=
EXTT5=
EXTT6=
EXTT7=
EXTT8=
EXTT9=
EXTT10=
EXTT11=
EXTT12=
EXTT13=
EXTT14=
PLAYORDER=
